<?xml version="1.0" standalone="no"?>
<!DOCTYPE svg PUBLIC "-//W3C//DTD SVG 20010904//EN"
 "http://www.w3.org/TR/2001/REC-SVG-20010904/DTD/svg10.dtd">
<svg version="1.0" xmlns="http://www.w3.org/2000/svg"
 width="1500.000000pt" height="1000.000000pt" viewBox="0 0 1500.000000 1000.000000"
 preserveAspectRatio="xMidYMid meet">

<g transform="translate(0.000000,1000.000000) scale(0.100000,-0.100000)"
fill="#000000" stroke="none">
<path d="M14133 8954 c-19 -134 -46 -213 -93 -266 -50 -57 -110 -83 -247 -107
-70 -12 -99 -20 -83 -24 14 -3 57 -11 95 -17 153 -27 229 -71 271 -155 25 -53
63 -212 65 -275 0 -19 9 15 20 75 23 129 34 167 65 216 47 75 122 115 259 138
125 22 126 23 35 38 -264 42 -323 109 -367 413 l-8 54 -12 -90z"/>
<path d="M9446 8287 c-63 -456 -167 -570 -581 -637 -71 -11 -146 -23 -165 -27
-27 -4 -6 -10 95 -25 294 -43 437 -101 513 -207 33 -48 65 -102 68 -118 1 -7
9 -34 18 -60 19 -60 53 -237 62 -326 4 -37 9 -66 11 -64 2 3 12 64 23 136 38
255 76 363 161 456 89 97 218 144 498 184 98 14 118 19 91 24 -19 3 -93 15
-165 27 -420 67 -515 169 -585 626 -11 76 -22 139 -23 140 -1 2 -10 -57 -21
-129z"/>
<path d="M12177 8050 c-10 -86 -26 -131 -61 -166 -33 -33 -115 -64 -169 -64
-43 0 -29 -8 34 -20 72 -13 119 -36 146 -70 24 -29 52 -123 54 -175 0 -16 7 2
14 41 15 83 34 123 75 157 33 28 37 30 125 48 48 11 54 14 30 17 -55 6 -132
31 -159 53 -38 30 -54 67 -69 156 l-14 78 -6 -55z"/>
<path d="M13594 8011 c-65 -39 -127 -144 -160 -270 -10 -36 -26 -78 -37 -94
-21 -31 -52 -114 -62 -169 -9 -50 -20 -48 -34 6 -18 71 -14 213 9 301 11 43
18 80 15 83 -12 12 -37 -26 -56 -87 -25 -82 -27 -208 -5 -305 9 -38 14 -71 12
-73 -2 -3 -13 0 -24 6 -40 21 -74 143 -81 289 -2 30 -20 -2 -27 -44 -8 -55 10
-145 37 -190 38 -62 11 -60 -53 3 -52 51 -69 53 -44 4 22 -42 78 -78 161 -103
59 -18 77 -29 117 -72 26 -28 47 -54 48 -58 0 -5 -12 -8 -27 -8 -16 0 -45 -5
-65 -11 -35 -9 -38 -13 -38 -45 0 -72 39 -126 128 -174 l47 -25 -1 -92 c-1
-76 -6 -101 -28 -150 -48 -105 -124 -161 -246 -183 -74 -13 -128 -9 -288 26
-167 35 -191 33 -382 -35 -93 -34 -150 -39 -192 -17 -25 13 -28 13 -28 0 0
-28 47 -64 85 -64 19 0 35 -2 35 -5 0 -3 -16 -25 -35 -51 -19 -25 -38 -62 -41
-83 l-6 -37 -106 -12 c-89 -10 -212 -33 -376 -69 l-28 -6 15 29 c19 38 30 91
22 104 -4 6 -16 -3 -29 -22 -32 -48 -67 -62 -108 -44 -59 25 -168 157 -168
203 0 29 9 34 91 44 107 13 154 45 192 129 11 25 30 58 43 73 41 49 27 97 -28
97 -40 0 -70 -33 -62 -67 7 -26 6 -26 -39 -21 -25 3 -75 19 -110 36 l-65 30 5
45 c3 27 1 47 -6 51 -7 5 -11 -2 -11 -18 0 -15 -8 -30 -19 -36 -29 -15 -30
-13 -25 23 4 25 0 38 -21 60 -14 15 -32 27 -41 27 -13 0 -13 -3 0 -29 22 -43
3 -63 -62 -66 -37 -2 -64 -10 -92 -29 l-40 -26 -11 27 c-35 91 43 273 117 273
12 0 35 5 51 11 27 10 28 11 8 25 -26 20 -89 11 -133 -19 -31 -21 -92 -123
-92 -154 0 -8 -4 -11 -10 -8 -14 8 -13 41 3 83 9 26 9 36 1 39 -14 5 -1 80 21
123 16 31 63 81 133 141 68 58 49 79 -34 38 -23 -12 -58 -38 -78 -58 -38 -40
-92 -141 -102 -190 -4 -17 -10 -31 -14 -31 -14 0 -22 34 -27 115 -7 102 11
179 74 307 26 54 44 101 40 105 -13 12 -93 -76 -120 -130 -30 -64 -47 -139
-47 -215 0 -34 -9 -79 -21 -112 -12 -32 -23 -90 -27 -137 -2 -46 -8 -83 -11
-83 -9 0 -41 76 -59 140 -11 37 -16 97 -16 183 0 135 -11 160 -33 76 -26 -100
-5 -252 52 -377 30 -65 29 -60 8 -64 -34 -6 -116 116 -129 190 -19 114 -51
142 -41 37 6 -67 41 -151 78 -191 43 -46 11 -46 -59 2 -63 42 -85 41 -48 -3
33 -39 108 -68 200 -78 62 -7 75 -12 125 -53 66 -53 71 -62 36 -62 -38 0 -105
-37 -105 -58 0 -33 45 -107 80 -130 19 -12 53 -28 77 -34 58 -14 79 -44 93
-130 28 -166 -28 -287 -165 -355 -92 -46 -150 -56 -354 -58 -209 -2 -219 -4
-349 -88 -37 -24 -86 -51 -110 -60 -50 -20 -132 -22 -151 -4 -9 8 -8 2 2 -19
19 -38 59 -56 103 -48 l34 6 -27 -58 c-17 -37 -27 -76 -27 -105 l0 -46 -105
-75 c-177 -126 -395 -260 -678 -416 -88 -49 -92 -51 -121 -37 -35 18 -76 7
-136 -36 -46 -33 -71 -38 -63 -11 33 96 44 122 53 122 6 0 17 6 23 14 9 11 7
15 -9 19 -32 8 -23 35 19 56 26 14 42 31 50 52 14 41 14 41 -8 29 -57 -30 -93
6 -56 55 27 34 48 85 40 93 -3 3 -19 -7 -35 -23 -39 -37 -81 -38 -120 0 -31
30 -97 148 -100 180 -5 44 -4 45 98 45 107 0 143 13 178 66 11 15 36 43 57 63
55 53 48 111 -13 111 -32 0 -50 -17 -50 -47 0 -45 -73 -25 -158 45 -39 32 -41
36 -27 52 8 9 15 27 14 41 l0 24 -11 -22 c-11 -22 -44 -40 -55 -30 -2 3 0 14
6 25 15 28 2 61 -31 78 -28 14 -28 14 -16 -6 10 -15 10 -25 2 -38 -9 -13 -26
-17 -81 -17 -44 0 -76 -5 -86 -13 -27 -23 -40 -4 -35 53 8 99 85 185 166 185
43 0 51 7 30 28 -38 38 -145 -8 -192 -82 -16 -25 -33 -46 -38 -46 -11 0 1 49
20 77 8 13 11 30 8 39 -17 44 60 141 147 185 76 39 98 69 50 69 -72 0 -167
-72 -229 -172 -16 -27 -32 -48 -36 -48 -13 0 -9 93 7 155 20 74 63 156 120
225 40 49 55 80 40 80 -25 0 -78 -36 -113 -75 -44 -50 -76 -123 -97 -220 -6
-33 -23 -76 -37 -97 -14 -20 -30 -58 -37 -85 -7 -26 -16 -61 -20 -78 l-8 -30
-13 30 c-21 51 -24 191 -6 275 9 41 19 89 22 105 l6 30 -26 -28 c-65 -71 -76
-286 -21 -420 7 -16 4 -18 -16 -15 -34 4 -79 116 -86 214 -3 41 -9 74 -14 74
-12 0 -22 -86 -15 -131 4 -23 15 -58 26 -80 38 -74 22 -78 -44 -13 -49 48 -66
53 -46 12 31 -59 126 -118 191 -118 19 0 129 -104 129 -122 0 -5 -15 -8 -34
-8 -18 0 -48 -3 -65 -6 -27 -6 -31 -11 -31 -38 1 -70 53 -140 128 -171 38 -17
52 -47 52 -120 0 -82 -34 -177 -79 -223 -103 -104 -245 -121 -497 -61 -117 27
-182 22 -303 -25 -116 -46 -176 -54 -219 -32 -24 12 -32 13 -32 4 1 -35 59
-73 96 -64 30 8 31 -5 3 -30 -12 -10 -30 -37 -41 -58 -27 -52 -20 -147 16
-231 14 -33 26 -70 26 -83 0 -20 -4 -22 -37 -17 -21 2 -99 12 -173 20 -138 17
-504 72 -529 81 -11 4 -9 8 7 20 27 19 28 34 2 34 -32 0 -25 37 10 55 16 8 36
29 45 45 24 47 17 78 -12 49 -16 -16 -67 -7 -71 13 -2 10 5 30 16 45 22 32 47
102 38 110 -3 3 -20 -11 -39 -31 -51 -54 -105 -47 -159 19 -44 54 -109 169
-106 190 3 18 13 20 103 25 120 6 155 22 202 95 18 28 46 64 61 80 36 38 42
89 13 104 -49 26 -107 -7 -95 -54 6 -22 3 -25 -23 -25 -32 0 -132 47 -172 81
-18 15 -21 23 -13 31 7 7 12 25 12 41 l0 30 -21 -27 c-31 -39 -48 -34 -42 12
5 34 1 42 -27 66 -38 31 -46 29 -29 -7 19 -42 -1 -57 -75 -57 -44 0 -70 -6
-94 -20 -18 -11 -37 -18 -43 -15 -14 9 -11 112 6 151 36 87 88 127 175 136 14
2 25 9 25 18 0 11 -13 16 -50 18 -82 4 -124 -27 -190 -139 l-19 -34 -4 32 c-2
18 4 43 13 56 10 16 14 34 10 50 -8 31 25 111 63 150 15 16 54 45 87 64 85 51
108 83 59 83 -42 0 -133 -51 -174 -98 -21 -23 -53 -72 -72 -107 -18 -36 -36
-65 -40 -65 -14 0 -8 161 7 221 17 65 59 146 117 228 42 60 46 71 23 71 -33 0
-190 -180 -158 -180 5 0 3 -4 -4 -8 -14 -9 -43 -113 -43 -157 0 -16 -14 -59
-31 -95 -17 -36 -36 -97 -42 -137 -6 -40 -15 -73 -18 -73 -4 0 -16 21 -26 48
-20 53 -25 227 -9 341 7 53 6 63 -5 59 -8 -2 -23 -29 -33 -59 -29 -83 -25
-228 8 -343 15 -49 25 -90 24 -91 -2 -2 -13 1 -26 6 -34 13 -89 137 -101 227
-5 41 -12 77 -15 80 -13 12 -17 -8 -17 -77 0 -71 4 -85 69 -213 11 -23 -31 -2
-78 38 -54 46 -76 46 -46 -1 35 -53 141 -105 216 -105 19 0 46 -19 95 -65 67
-63 68 -65 39 -65 -39 0 -107 -20 -116 -34 -19 -27 24 -131 68 -165 15 -12 44
-26 65 -33 67 -20 74 -35 74 -167 0 -107 -2 -120 -27 -166 -89 -165 -213 -201
-543 -160 -787 97 -1283 94 -1800 -10 -297 -59 -544 -136 -942 -292 -7 -3 -13
1 -13 10 0 21 -37 65 -70 82 -26 13 -30 13 -54 -6 -24 -19 -27 -19 -51 -3 -28
18 -26 19 -90 -40 -37 -35 -109 -76 -131 -76 -23 0 -34 17 -34 54 0 13 -9 35
-20 49 -11 14 -20 33 -20 42 0 10 -6 23 -14 29 -8 6 -17 21 -21 33 -5 19 -1
25 20 33 33 12 48 53 41 110 -6 48 -41 90 -75 90 -10 0 -31 18 -46 40 -59 85
-148 140 -259 161 -67 12 -164 0 -256 -32 -50 -17 -65 -18 -101 -9 -23 6 -53
9 -68 5 -82 -20 -108 -132 -44 -191 37 -34 83 -32 126 6 19 17 44 30 54 30 56
0 105 -88 65 -116 -37 -26 -40 -114 -5 -149 8 -8 25 -15 39 -15 21 0 24 -4 24
-38 0 -21 -3 -41 -6 -45 -4 -3 -36 21 -72 53 -120 108 -290 172 -408 154 -49
-7 -60 -6 -57 6 13 48 19 129 11 152 -21 58 -102 49 -165 -20 -40 -43 -46 -46
-109 -53 -39 -4 -70 -12 -75 -20 -10 -16 -12 -97 -3 -150 l6 -36 46 13 c62 19
136 18 152 -1 10 -12 11 -30 4 -71 l-9 -55 -95 -2 c-88 -2 -101 -6 -172 -41
-93 -46 -176 -129 -216 -213 -23 -51 -27 -70 -27 -163 0 -116 15 -162 78 -228
35 -36 120 -72 174 -72 146 0 265 147 212 263 -21 45 -85 60 -139 32 -36 -19
-46 -54 -31 -105 16 -54 15 -58 -23 -68 -98 -27 -157 44 -127 153 12 47 61
109 102 130 43 23 128 36 178 29 139 -21 175 -174 116 -498 -36 -197 -34 -323
8 -408 16 -32 44 -71 64 -87 l36 -29 -49 -74 c-55 -84 -167 -199 -238 -246
-97 -63 -147 -76 -296 -76 -119 0 -142 2 -195 23 -116 47 -198 161 -212 297
-11 101 38 173 124 181 39 4 53 1 75 -17 16 -12 28 -28 28 -35 0 -21 -51 -58
-64 -45 -16 16 -71 12 -89 -8 -47 -51 9 -137 89 -137 113 0 195 163 133 265
-59 96 -147 120 -251 68 -148 -74 -187 -247 -96 -429 102 -204 349 -305 659
-270 150 17 253 43 529 133 762 247 1123 313 1570 287 219 -13 425 -7 496 15
77 24 132 69 160 131 47 103 42 194 -17 274 -37 52 -105 86 -154 77 -46 -9
-97 -46 -108 -79 -21 -63 19 -137 73 -137 37 0 73 35 64 63 -9 30 -24 47 -41
47 -32 0 -4 25 31 28 31 3 42 -2 71 -31 43 -43 53 -92 30 -152 -33 -89 -127
-131 -270 -123 -92 6 -159 31 -250 91 -68 46 -158 127 -149 136 3 3 32 11 64
18 73 14 154 54 197 95 33 32 63 101 63 147 1 22 16 35 93 82 299 183 649 301
1051 353 148 20 494 41 503 32 4 -4 -15 -48 -41 -99 -87 -165 -146 -237 -235
-292 -54 -32 -64 -44 -89 -107 -19 -46 -136 -77 -181 -49 -31 20 -79 -38 -95
-116 -8 -33 9 -73 30 -73 43 0 198 65 281 117 44 28 123 109 123 126 0 10 99
139 145 189 75 81 120 108 181 108 30 0 79 -9 111 -22 65 -24 137 -87 131
-115 -4 -24 -69 -59 -155 -84 -65 -20 -73 -25 -88 -59 -9 -20 -15 -48 -13 -61
9 -64 175 7 308 131 33 31 60 64 60 73 0 15 -92 97 -110 97 -4 0 -22 13 -40
28 l-33 29 65 7 c86 8 170 31 232 62 59 30 130 95 147 136 9 23 16 27 33 22
109 -35 233 -44 333 -25 26 6 103 12 170 14 l122 4 -6 -30 c-6 -29 -5 -30 23
-23 16 4 53 18 83 32 40 18 71 24 123 24 49 0 67 -3 62 -11 -4 -7 -52 -33
-108 -59 -138 -65 -179 -109 -162 -176 l7 -25 42 36 c48 42 205 120 258 129
38 7 67 32 92 81 l15 31 204 12 c111 7 240 16 286 19 l82 6 0 -41 c0 -22 7
-71 16 -109 29 -125 -3 -234 -93 -312 -49 -43 -59 -73 -44 -128 18 -66 31 -69
84 -20 81 74 116 188 117 376 0 99 18 138 83 175 48 28 138 56 178 56 27 0 27
-1 13 -27 -30 -58 -6 -127 48 -138 56 -12 101 -41 159 -102 75 -77 89 -101 89
-145 0 -29 -8 -45 -38 -78 -22 -22 -46 -40 -54 -40 -10 0 -18 -13 -22 -37 -8
-54 -7 -111 2 -117 15 -9 67 36 115 99 62 81 87 135 87 185 0 35 -6 46 -48 88
-27 26 -69 64 -94 84 -81 66 -109 168 -69 251 12 24 30 52 40 61 17 16 148 47
356 86 108 20 159 35 190 57 30 20 35 16 35 -27 0 -27 7 -47 21 -61 30 -30 83
-21 213 36 78 34 116 45 154 45 l51 0 -8 -28 c-33 -115 -108 -167 -280 -197
-71 -12 -99 -22 -113 -37 -37 -43 -34 -98 5 -106 20 -4 137 47 137 59 0 5 3 8
8 7 4 -2 54 24 112 56 74 42 124 79 172 129 56 57 68 65 68 47 0 -34 -72 -178
-122 -246 -43 -57 -62 -71 -150 -107 -40 -17 -62 -50 -73 -110 l-7 -38 53 21
c59 24 91 44 167 108 82 69 130 139 143 208 13 72 38 121 99 200 63 81 68 98
35 128 l-26 25 20 20 c11 11 29 37 40 58 18 36 26 40 133 77 62 22 232 83 377
138 145 54 267 96 270 93 3 -3 -22 -58 -54 -123 -51 -99 -71 -128 -137 -194
-63 -62 -78 -82 -78 -106 0 -55 -87 -99 -169 -86 -40 6 -41 6 -61 -37 -24 -55
-27 -137 -4 -146 24 -9 82 12 164 61 123 72 166 118 245 261 76 139 142 227
194 262 64 43 209 24 284 -37 43 -36 45 -49 15 -77 -24 -22 -125 -76 -165 -88
-15 -4 -26 -19 -34 -44 -28 -95 16 -117 109 -55 63 41 208 184 217 215 8 25
-17 46 -120 100 l-79 42 87 22 c161 41 281 123 323 222 9 21 25 56 35 78 l19
40 -3 -42 -2 -42 44 -7 c65 -10 199 3 273 26 36 11 91 38 123 59 57 39 58 39
74 20 18 -22 41 -26 85 -14 26 7 27 6 17 -13 -13 -25 -15 -72 -2 -72 16 0 184
116 215 149 16 17 46 54 66 83 36 52 90 98 116 98 24 0 15 -44 -22 -106 -51
-85 -96 -128 -207 -196 -107 -66 -148 -109 -149 -158 -2 -59 16 -58 85 7 44
41 94 74 161 107 l96 46 28 63 c16 34 51 98 78 142 89 143 94 171 37 210 -43
29 -62 30 -127 11 -46 -14 -47 -14 -44 7 3 19 18 24 143 49 224 45 404 76 410
70 9 -9 5 -91 -6 -136 -14 -56 -49 -93 -96 -101 -65 -11 -73 -16 -80 -43 -3
-14 3 -75 16 -137 18 -91 20 -119 11 -164 -13 -69 -48 -128 -105 -179 -43 -38
-45 -42 -45 -94 0 -52 19 -98 41 -98 19 0 86 71 112 118 35 65 46 122 56 287
l7 138 40 37 c43 40 129 77 202 87 42 6 45 5 38 -13 -5 -10 -10 -37 -13 -59
-6 -51 22 -90 70 -99 48 -9 117 -57 178 -124 72 -79 84 -109 62 -164 -18 -46
-58 -87 -84 -88 -13 0 -20 -16 -28 -64 -19 -111 6 -125 80 -46 65 69 116 149
130 202 20 74 1 103 -143 220 -63 51 -91 114 -86 194 3 56 8 68 51 122 50 65
67 99 67 139 0 18 4 24 15 19 102 -39 166 -51 275 -51 120 0 118 0 243 63 4 2
7 -14 7 -35 0 -100 62 -108 240 -33 138 58 210 68 210 27 0 -13 -15 -47 -32
-77 -27 -45 -44 -61 -95 -87 -36 -18 -93 -36 -135 -43 -130 -21 -144 -27 -163
-66 -24 -52 -14 -84 28 -84 42 1 91 23 249 117 100 60 145 94 193 146 35 37
66 67 69 67 18 0 -37 -136 -87 -215 -64 -102 -89 -127 -164 -161 -80 -36 -99
-58 -109 -123 -7 -42 -6 -43 17 -36 81 24 186 98 270 190 55 59 74 95 83 153
9 57 55 148 111 216 50 62 56 95 24 127 -21 21 -21 21 -1 42 26 29 52 81 52
106 0 11 -11 32 -24 47 -38 45 -112 32 -189 -32 -53 -45 -57 -33 -20 73 10 29
23 53 28 53 6 0 16 5 22 11 9 9 6 16 -10 29 -18 15 -19 20 -9 33 7 8 23 18 36
21 15 4 32 22 45 48 22 45 21 59 -3 39 -22 -19 -70 -10 -75 13 -2 11 3 24 11
30 23 17 38 52 38 85 0 40 -11 39 -30 -2 -13 -27 -20 -32 -49 -30 -19 1 -46
10 -60 21 -32 24 -86 111 -107 175 -23 70 -13 79 90 71 97 -8 142 8 184 65 15
19 44 51 65 71 57 54 48 110 -18 110 -37 0 -55 -16 -55 -47 0 -17 -6 -23 -23
-23 -27 0 -94 35 -143 74 -33 26 -34 29 -20 45 18 19 21 57 7 66 -5 3 -11 -5
-13 -17 -2 -17 -11 -24 -33 -26 -24 -3 -28 -1 -17 9 21 22 14 66 -15 88 -31
25 -39 21 -23 -9 20 -37 -4 -53 -71 -47 -44 5 -64 2 -93 -13 l-37 -18 -10 26
c-14 36 4 103 41 158 45 65 75 84 131 84 56 0 71 15 34 32 -20 9 -36 9 -72 0
-60 -16 -96 -43 -135 -100 -33 -47 -33 -47 -36 -19 -2 16 3 36 12 46 8 9 14
30 14 46 -2 65 73 161 159 204 23 11 49 31 58 43 15 22 14 23 -4 26 -60 10
-186 -90 -248 -196 -37 -63 -49 -37 -33 71 14 100 58 197 129 285 28 34 51 67
51 72 0 15 -22 12 -56 -9z m-176 -618 c-6 -35 -15 -63 -19 -63 -13 0 -31 72
-26 104 3 18 13 50 22 72 l18 39 9 -45 c5 -30 4 -66 -4 -107z m70 -105 c17
-38 27 -68 22 -68 -17 0 -52 62 -57 103 -7 52 -4 49 35 -35z m-2395 -323 c0
-11 0 -45 -1 -75 l-3 -55 -24 40 c-26 41 -32 98 -18 166 l6 33 19 -44 c11 -25
20 -54 21 -65z m91 -142 c50 -69 49 -79 -2 -33 -30 28 -52 66 -52 92 0 14 -1
15 54 -59z m1166 -650 c10 -27 21 -56 25 -65 6 -14 2 -18 -16 -18 -13 0 -124
-20 -246 -43 -123 -24 -223 -40 -223 -36 0 4 -10 9 -22 11 -34 5 -31 21 12 65
22 23 40 48 40 57 0 8 8 17 18 20 57 17 382 66 391 59 2 -2 12 -24 21 -50z
m-3729 -18 c2 -59 -10 -135 -21 -135 -10 0 -30 56 -30 85 0 35 32 117 41 108
5 -5 10 -31 10 -58z m-2397 -139 c9 -30 13 -61 10 -69 -3 -8 -9 -37 -13 -63
l-7 -49 -23 44 c-17 33 -21 54 -17 80 7 45 26 111 31 111 2 0 11 -24 19 -54z
m2479 -96 c-8 -9 -43 44 -53 79 -17 61 2 55 30 -10 14 -35 25 -66 23 -69z
m-2366 -176 c-2 -3 -20 17 -41 42 -24 31 -36 58 -36 78 0 28 5 23 41 -43 22
-40 38 -75 36 -77z m3836 -346 c-14 -40 -31 -78 -37 -85 -12 -13 -360 -146
-411 -157 -22 -5 -12 5 38 36 38 24 148 96 245 160 97 64 180 117 184 118 4 0
-4 -33 -19 -72z m-4910 -405 c70 -3 127 -9 127 -14 0 -13 -112 -60 -168 -70
-46 -9 -59 -7 -92 9 l-38 18 10 -28 c13 -36 60 -61 104 -56 39 5 42 -2 15 -26
-29 -26 -60 -106 -71 -184 -5 -38 -15 -86 -22 -108 l-13 -39 -195 -6 c-281 -9
-502 -38 -745 -98 -256 -63 -515 -171 -683 -284 -69 -46 -84 -53 -88 -39 -41
129 -120 202 -220 202 -58 0 -109 -24 -131 -61 -14 -24 -21 -27 -47 -22 -41 7
-40 7 -64 88 -15 51 -31 80 -57 105 -34 33 -40 35 -123 40 -85 5 -87 6 -90 31
-4 31 43 76 86 84 36 7 51 13 237 90 209 86 530 193 730 244 485 123 900 156
1538 124z m2007 -248 c96 -13 211 -27 255 -31 116 -10 115 -9 100 -67 -7 -27
-16 -52 -21 -57 -19 -18 -635 -72 -651 -57 -3 3 12 28 34 54 48 59 83 115 83
135 0 9 -7 21 -15 28 -24 20 -18 32 13 26 15 -4 106 -17 202 -31z m908 -44 c9
-5 -4 -11 -37 -18 -47 -9 -51 -9 -51 8 0 15 8 19 38 19 20 0 43 -4 50 -9z
m-1256 -56 c-2 -11 -22 -44 -43 -72 -39 -53 -40 -53 -94 -53 -30 0 -55 3 -55
6 0 14 85 101 118 122 45 27 79 26 74 -3z m-3659 -503 c57 -60 53 -135 -11
-204 -34 -36 -43 -40 -97 -45 -50 -4 -85 2 -210 37 -213 60 -214 60 -94 54 58
-3 121 -3 141 1 45 9 78 38 78 70 0 28 0 28 34 15 18 -6 34 -6 50 2 27 12 51
59 42 83 -10 27 38 17 67 -13z m-324 -462 c55 -1 57 -2 95 -51 22 -27 68 -73
103 -102 34 -28 63 -54 63 -57 0 -3 -80 -3 -177 -2 -450 9 -743 -50 -1358
-272 -151 -55 -389 -126 -419 -126 -17 0 -10 10 32 46 58 51 153 163 200 237
l30 47 118 3 c135 4 149 8 453 126 322 126 488 164 685 156 66 -3 144 -5 175
-5z"/>
<path d="M5766 7480 c-10 -74 -37 -132 -74 -158 -30 -22 -126 -51 -172 -53
-14 0 7 -7 46 -14 139 -25 184 -73 201 -212 l6 -58 18 84 c25 113 50 144 135
171 37 11 80 20 98 21 20 0 3 7 -46 18 -83 19 -140 51 -159 91 -7 14 -19 57
-29 95 l-16 70 -8 -55z"/>
<path d="M4777 7160 c-4 -19 -14 -78 -22 -130 -34 -209 -75 -312 -152 -380
-81 -71 -162 -101 -363 -135 -181 -30 -173 -27 -100 -37 130 -17 277 -50 342
-77 159 -67 224 -170 268 -429 11 -64 23 -133 27 -152 5 -29 9 -13 24 84 35
227 69 324 140 401 51 55 101 85 189 114 70 22 274 61 324 61 49 1 10 16 -59
24 -118 13 -260 48 -331 80 -157 73 -219 189 -264 491 -14 96 -19 113 -23 85z"/>
<path d="M7421 6990 c-39 -232 -89 -274 -371 -314 -8 -1 19 -7 60 -14 217 -33
269 -81 306 -283 l18 -94 12 77 c32 206 84 260 280 295 l98 17 -76 12 c-212
33 -278 101 -306 314 l-8 65 -13 -75z"/>
<path d="M3905 5845 c-35 -148 -62 -184 -160 -209 -32 -9 -73 -17 -90 -17 -18
-1 -22 -3 -10 -5 208 -41 218 -50 260 -229 7 -27 9 -24 21 33 25 122 69 163
192 184 l77 13 -45 6 c-153 22 -197 60 -225 193 -11 56 -13 59 -20 31z"/>
<path d="M13312 5094 c-19 -159 -68 -395 -101 -480 -96 -247 -245 -339 -667
-409 -82 -14 -163 -25 -180 -25 -17 0 -34 -3 -38 -7 -4 -4 64 -17 151 -30 485
-69 643 -164 741 -443 40 -116 102 -439 102 -535 0 -54 8 -19 24 100 66 486
147 652 370 760 123 59 335 109 554 131 40 3 71 9 68 11 -3 3 -79 16 -168 29
-479 69 -639 168 -737 451 -30 89 -56 215 -81 388 -12 83 -22 154 -24 159 -1
5 -8 -40 -14 -100z"/>
<path d="M11197 4641 c-6 -54 -34 -116 -64 -143 -29 -26 -85 -47 -149 -54
l-58 -7 82 -17 c123 -24 161 -61 186 -182 15 -67 17 -65 36 25 20 98 68 138
190 159 l71 12 -69 12 c-131 22 -172 59 -195 173 -16 78 -23 83 -30 22z"/>
<path d="M10431 4075 c-48 -368 -133 -454 -504 -511 l-112 -18 90 -13 c224
-32 320 -66 392 -139 71 -74 104 -166 137 -389 l13 -90 7 50 c16 113 47 256
68 310 30 80 101 155 178 189 65 29 195 60 305 71 36 4 64 9 62 11 -1 2 -50
10 -108 19 -207 31 -284 61 -369 142 -30 30 -54 55 -52 56 2 1 -2 16 -8 32
-24 61 -47 152 -60 235 -23 151 -25 154 -39 45z"/>
<path d="M6330 4001 c0 -43 -27 -174 -50 -239 -47 -135 -140 -189 -387 -225
l-88 -13 60 -8 c102 -13 231 -44 273 -65 53 -27 98 -73 128 -132 25 -49 64
-215 64 -271 0 -17 4 -27 10 -23 6 3 10 18 10 33 0 56 39 211 66 266 57 116
127 150 404 195 39 6 46 9 23 10 -74 3 -241 42 -300 71 -107 53 -150 127 -181
316 -18 105 -32 143 -32 85z"/>
<path d="M8606 3829 c-8 -63 -36 -120 -71 -148 -15 -11 -61 -28 -103 -37 l-77
-18 44 -8 c73 -13 137 -37 159 -61 21 -23 52 -114 52 -154 0 -44 15 -23 27 37
21 113 59 148 188 174 l60 13 -74 16 c-119 27 -162 73 -177 188 -4 27 -10 49
-14 49 -4 0 -10 -23 -14 -51z"/>
<path d="M4970 3491 c0 -43 -28 -122 -54 -150 -29 -33 -92 -59 -161 -67 l-59
-7 82 -17 c45 -9 94 -25 109 -36 38 -28 70 -89 78 -146 4 -26 10 -48 14 -48 3
0 12 28 18 62 20 105 70 149 190 170 l75 12 -69 12 c-132 22 -183 70 -199 187
-8 54 -24 73 -24 28z"/>
</g>
</svg>
